<?xml version="1.0" encoding="UTF-8" standalone="no"?><!DOCTYPE svg PUBLIC "-//W3C//DTD SVG 1.1//EN" "http://www.w3.org/Graphics/SVG/1.1/DTD/svg11.dtd"><svg width="921px" height="55px" version="1.1" xmlns="http://www.w3.org/2000/svg" xmlns:xlink="http://www.w3.org/1999/xlink" xml:space="preserve" xmlns:serif="http://www.serif.com/" style="fill-rule:evenodd;clip-rule:evenodd;stroke-miterlimit:1.5;"><g id="divider"><path d="M528.882,31.551L537.343,23.091" style="fill:none;stroke:#f00;stroke-width:2.92px;"/><path d="M537.343,38.997L560.695,15.644" style="fill:none;stroke:#f00;stroke-width:2.92px;"/><path d="M448.228,38.489C449.169,39.43 450.696,39.43 451.637,38.489C456.312,33.814 469.298,20.828 473.973,16.153C474.425,15.701 475.038,15.447 475.677,15.447C476.317,15.447 476.93,15.701 477.382,16.153C481.258,20.029 490.693,29.464 494.569,33.34C495.021,33.792 495.275,34.405 495.275,35.044C495.275,35.684 495.021,36.297 494.569,36.749C490.693,40.624 481.258,50.06 477.382,53.935C476.441,54.877 474.914,54.877 473.973,53.935C472.065,52.028 468.992,48.955 467.084,47.047C466.143,46.105 466.143,44.579 467.084,43.638C468.992,41.73 472.065,38.657 473.973,36.749C474.914,35.807 474.914,34.281 473.973,33.34C473.413,32.78 472.792,32.159 472.233,31.6C471.292,30.658 469.765,30.658 468.824,31.6C464.149,36.275 451.163,49.26 446.488,53.935C446.036,54.388 445.423,54.642 444.783,54.642C444.144,54.642 443.531,54.388 443.079,53.935C439.203,50.06 429.768,40.624 425.892,36.749C425.44,36.297 425.186,35.684 425.186,35.044C425.186,34.405 425.44,33.792 425.892,33.34C429.768,29.464 439.203,20.029 443.079,16.153C444.02,15.212 445.547,15.212 446.488,16.153C448.396,18.061 451.469,21.134 453.377,23.042C454.318,23.983 454.318,25.51 453.377,26.451C451.469,28.359 448.396,31.432 446.488,33.34C445.547,34.281 445.547,35.807 446.488,36.749C447.047,37.308 447.669,37.929 448.228,38.489ZM468.824,11.004C469.765,10.063 469.765,8.536 468.824,7.595C466.916,5.687 463.843,2.614 461.935,0.706C460.994,-0.235 459.467,-0.235 458.526,0.706C456.618,2.614 453.545,5.687 451.637,7.595C450.696,8.536 450.696,10.063 451.637,11.004C453.545,12.912 456.618,15.985 458.526,17.893C459.467,18.834 460.994,18.834 461.935,17.893C463.843,15.985 466.916,12.912 468.824,11.004Z" style="fill:#f00;"/><path d="M560.695,31.551L569.156,23.091" style="fill:none;stroke:#f00;stroke-width:2.92px;"/><path d="M576.878,27.321L877.261,27.321" style="fill:none;stroke:#f00;stroke-width:2.92px;"/><path d="M391.578,31.551L383.118,23.091" style="fill:none;stroke:#f00;stroke-width:2.92px;"/><path d="M383.118,38.997L359.765,15.644" style="fill:none;stroke:#f00;stroke-width:2.92px;"/><path d="M359.765,31.551L351.305,23.091" style="fill:none;stroke:#f00;stroke-width:2.92px;"/><path d="M343.583,27.321L43.2,27.321" style="fill:none;stroke:#f00;stroke-width:2.92px;"/><path d="M901.142,10.808L884.629,27.321L901.142,43.834L917.655,27.321L901.142,10.808Z" style="fill:none;stroke:#f00;stroke-width:2.92px;"/><path d="M19.142,10.808L2.629,27.321L19.142,43.834L35.655,27.321L19.142,10.808Z" style="fill:none;stroke:#f00;stroke-width:2.92px;"/></g></svg>