<?xml version="1.0" encoding="UTF-8" standalone="no"?><!DOCTYPE svg PUBLIC "-//W3C//DTD SVG 1.1//EN" "http://www.w3.org/Graphics/SVG/1.1/DTD/svg11.dtd"><svg width="216px" height="48px" version="1.1" xmlns="http://www.w3.org/2000/svg" xmlns:xlink="http://www.w3.org/1999/xlink" xml:space="preserve" xmlns:serif="http://www.serif.com/" style="fill-rule:evenodd;clip-rule:evenodd;stroke-linejoin:round;stroke-miterlimit:2;"><g id="logo"><path d="M19.996,33.402C20.813,34.219 22.138,34.219 22.955,33.402C27.012,29.345 38.282,18.075 42.339,14.018C42.731,13.626 43.263,13.405 43.818,13.405C44.373,13.405 44.905,13.626 45.297,14.018C48.661,17.382 56.849,25.57 60.213,28.933C60.605,29.326 60.825,29.858 60.825,30.413C60.825,30.968 60.605,31.5 60.213,31.892C56.849,35.255 48.661,43.444 45.297,46.807C44.48,47.624 43.156,47.624 42.339,46.807C40.683,45.151 38.016,42.485 36.361,40.829C35.543,40.012 35.543,38.687 36.361,37.87C38.016,36.215 40.683,33.548 42.339,31.892C43.156,31.075 43.156,29.75 42.339,28.933C41.853,28.448 41.314,27.909 40.829,27.424C40.012,26.607 38.687,26.607 37.87,27.424C33.813,31.481 22.544,42.75 18.487,46.807C18.094,47.2 17.562,47.42 17.007,47.42C16.452,47.42 15.92,47.2 15.528,46.807C12.165,43.444 3.976,35.255 0.613,31.892C0.22,31.5 -0,30.968 0,30.413C0,29.858 0.22,29.326 0.613,28.933C3.976,25.57 12.165,17.382 15.528,14.018C16.345,13.201 17.67,13.201 18.487,14.018C20.142,15.674 22.809,18.341 24.465,19.996C25.282,20.813 25.282,22.138 24.465,22.955C22.809,24.611 20.142,27.278 18.487,28.933C17.67,29.75 17.67,31.075 18.487,31.892C18.972,32.377 19.511,32.916 19.996,33.402ZM37.87,9.55C38.687,8.733 38.687,7.408 37.87,6.591C36.215,4.935 33.548,2.268 31.892,0.613C31.075,-0.204 29.75,-0.204 28.933,0.613C27.278,2.268 24.611,4.935 22.955,6.591C22.138,7.408 22.138,8.733 22.955,9.55C24.611,11.205 27.278,13.872 28.933,15.528C29.75,16.345 31.075,16.345 31.892,15.528C33.548,13.872 36.215,11.205 37.87,9.55Z" style="fill:#f00;"/><g><path d="M106.879,12.356L95.865,12.356C93.898,12.356 92.017,13.164 90.663,14.591C89.309,16.019 88.601,17.939 88.704,19.904C88.704,19.904 88.704,19.905 88.704,19.906C88.894,23.497 91.737,26.381 95.325,26.621C97.096,26.74 99.233,26.882 101.003,27.001C101.452,27.031 101.808,27.392 101.832,27.841C101.832,27.842 101.832,27.842 101.832,27.843C101.845,28.105 101.751,28.36 101.571,28.55C101.391,28.74 101.14,28.848 100.879,28.848L89.961,28.848L89.961,35.064L100.879,35.064C102.846,35.064 104.726,34.256 106.08,32.828C107.434,31.401 108.142,29.481 108.039,27.516C108.039,27.516 108.039,27.515 108.039,27.514C107.85,23.922 105.007,21.039 101.418,20.799C99.648,20.68 97.51,20.537 95.74,20.419C95.291,20.389 94.935,20.028 94.912,19.579C94.912,19.578 94.912,19.578 94.912,19.577C94.898,19.315 94.992,19.06 95.172,18.87C95.353,18.68 95.603,18.572 95.865,18.572L106.879,18.572L106.879,12.356Z" style="fill:#fff;"/><path d="M121.258,22.55L132.394,35.094L124,35.094L116.852,27.041L116.852,35.094L109.922,35.094L109.922,12.325L116.852,12.325L116.852,18.074L123.073,12.325L132.322,12.325L121.258,22.55Z" style="fill:#fff;"/><path d="M156.27,12.325L146.33,24.807L146.33,35.094L140.053,35.094L140.053,24.807L130.113,12.325L138.138,12.325L143.191,18.671L148.245,12.325L156.27,12.325Z" style="fill:#fff;"/><path d="M173.575,12.356L162.561,12.356C160.594,12.356 158.713,13.164 157.359,14.591C156.005,16.019 155.297,17.939 155.401,19.904C155.401,19.904 155.401,19.905 155.401,19.906C155.59,23.497 158.433,26.381 162.021,26.621C163.792,26.74 165.929,26.882 167.7,27.001C168.148,27.031 168.504,27.392 168.528,27.841C168.528,27.842 168.528,27.842 168.528,27.843C168.542,28.105 168.447,28.36 168.267,28.55C168.087,28.74 167.837,28.848 167.575,28.848L156.657,28.848L156.657,35.064L167.575,35.064C169.542,35.064 171.423,34.256 172.777,32.828C174.13,31.401 174.839,29.481 174.735,27.516C174.735,27.516 174.735,27.515 174.735,27.514C174.546,23.922 171.703,21.039 168.114,20.799C166.344,20.68 164.207,20.537 162.436,20.419C161.987,20.389 161.632,20.028 161.608,19.579C161.608,19.578 161.608,19.578 161.608,19.577C161.594,19.315 161.688,19.06 161.869,18.87C162.049,18.68 162.299,18.572 162.561,18.572L173.575,18.572L173.575,12.356Z" style="fill:#fff;"/><path d="M177.622,35.064L177.622,12.356L195.375,12.356L195.375,18.572L183.838,18.572L183.838,20.602L195.375,20.602L195.375,26.818L183.838,26.818L183.838,28.848L195.375,28.848L195.375,35.064L177.622,35.064Z" style="fill:#fff;"/><path d="M198.032,12.356C198.032,12.356 215.537,12.356 215.537,12.356L215.537,18.572L209.893,18.572L209.893,35.064L203.677,35.064L203.677,18.572L198.032,18.572L198.032,12.356Z" style="fill:#fff;"/></g></g></svg>