<?xml version="1.0" encoding="UTF-8" standalone="no"?><!DOCTYPE svg PUBLIC "-//W3C//DTD SVG 1.1//EN" "http://www.w3.org/Graphics/SVG/1.1/DTD/svg11.dtd"><svg width="292px" height="105px" version="1.1" xmlns="http://www.w3.org/2000/svg" xmlns:xlink="http://www.w3.org/1999/xlink" xml:space="preserve" xmlns:serif="http://www.serif.com/" style="fill-rule:evenodd;clip-rule:evenodd;stroke-linejoin:round;stroke-miterlimit:2;"><g><g><path d="M43.998,0.069L19.17,0.069C14.736,0.069 10.497,1.891 7.445,5.108C4.393,8.325 2.797,12.654 3.03,17.082C3.03,17.084 3.03,17.086 3.03,17.087C3.456,25.183 9.865,31.684 17.954,32.224C21.945,32.491 26.763,32.813 30.753,33.08C31.765,33.148 32.567,33.961 32.62,34.974C32.62,34.975 32.62,34.977 32.62,34.979C32.652,35.568 32.439,36.145 32.033,36.573C31.627,37.001 31.062,37.243 30.472,37.243L5.861,37.243L5.861,51.255L30.472,51.255C34.906,51.255 39.146,49.433 42.198,46.216C45.249,43 46.846,38.67 46.613,34.242C46.612,34.24 46.612,34.239 46.612,34.237C46.186,26.141 39.777,19.641 31.688,19.1C27.697,18.833 22.88,18.511 18.889,18.244C17.877,18.177 17.075,17.363 17.022,16.351C17.022,16.349 17.022,16.347 17.022,16.345C16.991,15.756 17.203,15.18 17.61,14.752C18.016,14.323 18.58,14.081 19.17,14.081L43.998,14.081L43.998,0.069Z" style="fill:#fff;"/><path d="M76.411,23.047L101.511,51.324L82.59,51.324L66.477,33.172L66.477,51.324L50.857,51.324L50.857,0L66.477,0L66.477,12.959L80.501,0L101.35,0L76.411,23.047Z" style="fill:#fff;"/><path d="M155.331,0L132.926,28.135L132.926,51.324L118.776,51.324L118.776,28.135L96.371,0L114.46,0L125.851,14.305L137.242,0L155.331,0Z" style="fill:#fff;"/><path d="M194.34,0.069L169.513,0.069C165.078,0.069 160.839,1.891 157.787,5.108C154.735,8.325 153.139,12.654 153.372,17.082C153.372,17.084 153.372,17.086 153.372,17.087C153.798,25.183 160.207,31.684 168.296,32.224C172.287,32.491 177.105,32.813 181.096,33.08C182.107,33.148 182.909,33.961 182.962,34.974C182.963,34.975 182.963,34.977 182.963,34.979C182.994,35.568 182.781,36.145 182.375,36.573C181.969,37.001 181.404,37.243 180.814,37.243L156.204,37.243L156.204,51.255L180.814,51.255C185.248,51.255 189.488,49.433 192.54,46.216C195.592,43 197.188,38.67 196.955,34.242C196.955,34.24 196.955,34.239 196.955,34.237C196.528,26.141 190.119,19.641 182.03,19.1C178.04,18.833 173.222,18.511 169.231,18.244C168.219,18.177 167.418,17.363 167.364,16.351C167.364,16.349 167.364,16.347 167.364,16.345C167.333,15.756 167.545,15.18 167.952,14.752C168.358,14.323 168.922,14.081 169.513,14.081L194.34,14.081L194.34,0.069Z" style="fill:#fff;"/><path d="M203.461,51.255L203.461,0.069L243.48,0.069L243.48,14.081L217.473,14.081L217.473,18.656L243.48,18.656L243.48,32.668L217.473,32.668L217.473,37.243L243.48,37.243L243.48,51.255L203.461,51.255Z" style="fill:#fff;"/><path d="M249.469,0.069C249.469,0.069 288.928,0.069 288.928,0.069L288.928,14.081L276.205,14.081L276.205,51.255L262.193,51.255L262.193,14.081L249.469,14.081L249.469,0.069Z" style="fill:#fff;"/></g><path d="M0,73.865L12.056,73.865L16.709,91.909L21.341,73.865L33.357,73.865L33.357,103.52L25.872,103.52L25.872,80.904L20.067,103.52L13.29,103.52L7.505,80.904L7.505,103.52L0,103.52L0,73.865Z" style="fill:#fff;fill-rule:nonzero;"/><path d="M58.5,73.865L67.644,73.865L67.644,91.545C67.644,93.298 67.371,94.953 66.824,96.511C66.278,98.068 65.422,99.43 64.255,100.597C63.089,101.763 61.865,102.583 60.584,103.054C58.804,103.715 56.666,104.046 54.172,104.046C52.729,104.046 51.154,103.945 49.448,103.742C47.742,103.54 46.316,103.139 45.17,102.539C44.024,101.939 42.975,101.086 42.024,99.98C41.074,98.874 40.423,97.734 40.072,96.561C39.506,94.673 39.223,93.001 39.223,91.545L39.223,73.865L48.366,73.865L48.366,91.969C48.366,93.588 48.814,94.852 49.711,95.762C50.608,96.672 51.852,97.128 53.443,97.128C55.021,97.128 56.258,96.679 57.155,95.782C58.052,94.886 58.5,93.615 58.5,91.969L58.5,73.865Z" style="fill:#fff;fill-rule:nonzero;"/><path d="M73.712,73.865L82.876,73.865L82.876,96.217L97.177,96.217L97.177,103.52L73.712,103.52L73.712,73.865Z" style="fill:#fff;fill-rule:nonzero;"/><path d="M97.157,73.865L125.011,73.865L125.011,81.188L115.666,81.188L115.666,103.52L106.502,103.52L106.502,81.188L97.157,81.188L97.157,73.865Z" style="fill:#fff;fill-rule:nonzero;"/><rect x="129.522" y="73.865" width="9.184" height="29.655" style="fill:#fff;fill-rule:nonzero;"/><path d="M145.179,73.865L157.235,73.865L161.888,91.909L166.52,73.865L178.536,73.865L178.536,103.52L171.051,103.52L171.051,80.904L165.246,103.52L158.469,103.52L152.684,80.904L152.684,103.52L145.179,103.52L145.179,73.865Z" style="fill:#fff;fill-rule:nonzero;"/><path d="M184.361,73.865L208.919,73.865L208.919,80.196L193.545,80.196L193.545,84.91L207.806,84.91L207.806,90.958L193.545,90.958L193.545,96.804L209.364,96.804L209.364,103.52L184.361,103.52L184.361,73.865Z" style="fill:#fff;fill-rule:nonzero;"/><path d="M214.421,73.865L228.034,73.865C230.718,73.865 232.886,74.229 234.538,74.957C236.19,75.686 237.555,76.731 238.634,78.093C239.713,79.455 240.495,81.039 240.981,82.846C241.466,84.653 241.709,86.568 241.709,88.591C241.709,91.76 241.348,94.218 240.627,95.964C239.905,97.711 238.904,99.174 237.623,100.354C236.342,101.534 234.966,102.32 233.496,102.711C231.487,103.25 229.666,103.52 228.034,103.52L214.421,103.52L214.421,73.865ZM223.584,80.581L223.584,96.784L225.83,96.784C227.744,96.784 229.107,96.571 229.916,96.147C230.725,95.722 231.359,94.98 231.817,93.921C232.276,92.863 232.505,91.147 232.505,88.773C232.505,85.631 231.992,83.48 230.968,82.32C229.943,81.161 228.243,80.581 225.87,80.581L223.584,80.581Z" style="fill:#fff;fill-rule:nonzero;"/><rect x="246.887" y="73.865" width="9.184" height="29.655" style="fill:#fff;fill-rule:nonzero;"/><path d="M280.891,98.624L270.453,98.624L269.017,103.52L259.651,103.52L270.797,73.865L280.79,73.865L291.936,103.52L282.348,103.52L280.891,98.624ZM278.969,92.212L275.692,81.552L272.436,92.212L278.969,92.212Z" style="fill:#fff;fill-rule:nonzero;"/></g></svg>